<?xml version="1.0" standalone="no"?>
<!DOCTYPE svg PUBLIC "-//W3C//DTD SVG 20010904//EN"
 "http://www.w3.org/TR/2001/REC-SVG-20010904/DTD/svg10.dtd">
<svg version="1.0" xmlns="http://www.w3.org/2000/svg"
 width="695.000000pt" height="695.000000pt" viewBox="0 0 695.000000 695.000000"
 preserveAspectRatio="xMidYMid meet">
<metadata>
Created by potrace 1.14, written by Peter Selinger 2001-2017
</metadata>
<g transform="translate(0.000000,695.000000) scale(0.100000,-0.100000)"
fill="#000000" stroke="none">
<path d="M3299 6826 c-2 -2 -47 -6 -99 -10 -52 -4 -104 -9 -115 -11 -11 -2
-38 -7 -60 -10 -74 -9 -109 -16 -245 -46 -74 -17 -142 -32 -150 -34 -21 -4
-135 -41 -260 -82 -189 -64 -380 -148 -555 -246 -84 -47 -301 -184 -328 -207
-6 -6 -47 -37 -91 -70 -187 -141 -404 -355 -578 -571 -212 -265 -420 -644
-531 -969 -32 -91 -79 -248 -83 -275 -2 -11 -15 -67 -28 -125 -22 -97 -31
-146 -41 -225 -2 -16 -6 -46 -9 -65 -28 -201 -29 -602 -1 -820 3 -19 7 -55 10
-80 3 -25 8 -52 10 -60 3 -8 7 -29 9 -45 6 -48 36 -186 52 -240 8 -27 15 -52
15 -55 22 -99 105 -336 171 -485 82 -184 261 -503 289 -513 5 -2 9 -8 9 -14 0
-5 17 -31 38 -56 20 -26 44 -56 53 -67 132 -164 248 -288 395 -422 352 -320
770 -565 1247 -728 53 -19 97 -32 97 -29 0 3 9 0 21 -6 11 -6 28 -13 37 -15 9
-1 42 -10 72 -18 71 -19 185 -45 234 -52 21 -3 41 -7 45 -9 3 -2 29 -7 56 -10
28 -3 61 -8 75 -11 63 -13 201 -20 390 -19 229 0 393 11 515 34 28 6 66 12 85
15 44 6 86 13 125 22 17 4 35 8 40 9 6 0 30 6 55 13 25 7 54 15 65 17 67 13
307 93 440 147 321 130 599 295 880 524 98 80 235 210 346 329 60 64 214 256
229 285 7 13 23 34 36 48 13 14 24 30 24 34 0 5 11 23 24 40 74 98 228 396
299 577 37 96 95 268 103 305 1 6 11 44 22 85 19 70 51 220 58 265 1 11 5 34
8 50 3 17 8 57 12 90 3 33 8 62 9 65 17 29 27 608 12 715 -3 22 -8 63 -11 90
-31 260 -97 525 -194 780 -55 144 -145 336 -204 433 -21 34 -38 65 -38 68 0 7
-159 247 -184 279 -9 11 -30 38 -47 60 -49 64 -101 127 -139 166 -170 178
-232 238 -361 347 -48 39 -91 72 -97 72 -6 0 -12 4 -14 9 -8 24 -290 213 -443
296 -109 60 -326 165 -340 165 -3 0 -24 9 -48 20 -99 45 -442 151 -569 175
-13 3 -45 9 -73 15 -27 5 -68 12 -90 16 -22 3 -47 7 -55 9 -8 2 -42 7 -75 11
-33 4 -73 8 -90 11 -43 5 -461 14 -466 9z m-55 -603 c69 -49 67 -34 72 -430 7
-584 6 -575 74 -621 30 -20 44 -23 93 -19 60 5 82 18 119 70 25 35 26 52 28
505 1 240 6 395 13 418 22 74 105 124 180 110 39 -7 103 -64 119 -105 11 -28
12 -90 3 -150 -6 -42 -8 -53 -30 -141 -47 -188 -28 -230 130 -279 39 -12 77
-25 85 -28 8 -3 20 -7 25 -8 27 -7 200 -77 212 -87 7 -6 13 -8 13 -4 0 3 35
-11 78 -33 42 -21 92 -42 110 -46 49 -10 109 24 155 89 22 30 46 62 55 73 10
10 37 47 62 83 24 36 48 67 52 68 4 2 8 8 8 14 0 28 98 78 153 80 108 2 199
-103 199 -231 0 -31 -5 -69 -11 -86 -7 -16 -66 -83 -132 -147 -140 -137 -166
-181 -143 -238 24 -56 40 -76 76 -92 47 -22 154 -23 187 -2 32 20 150 141 211
217 83 102 177 118 253 41 31 -31 49 -67 67 -137 13 -49 49 -80 88 -76 60 6
163 -69 176 -129 9 -39 -1 -90 -25 -129 -50 -80 -134 -100 -204 -48 -22 17
-42 33 -45 36 -18 21 -52 29 -92 20 -70 -16 -83 -18 -348 -55 -103 -15 -141
-30 -176 -72 -85 -98 -35 -252 89 -280 56 -13 120 3 187 46 36 23 143 53 187
52 93 -1 190 -28 326 -89 57 -25 98 -36 150 -40 90 -7 140 -33 175 -91 66
-114 -2 -252 -125 -252 -25 0 -113 30 -253 86 -118 47 -222 88 -230 89 -8 2
-44 13 -80 24 -94 29 -167 36 -280 27 -19 -2 -73 -7 -120 -11 -47 -4 -101 -8
-120 -10 -19 -2 -73 -6 -120 -10 -47 -4 -101 -8 -120 -10 -19 -2 -76 -7 -125
-10 -89 -7 -91 -6 -121 22 -17 15 -46 48 -66 73 -206 259 -532 445 -854 486
-59 7 -233 7 -291 0 -258 -34 -506 -139 -693 -294 -74 -62 -184 -177 -223
-234 -24 -36 -40 -49 -65 -54 -18 -4 -131 -3 -250 0 -265 9 -320 12 -492 32
-161 18 -195 12 -452 -86 -73 -28 -137 -52 -143 -54 -5 -2 -21 -8 -35 -13 -85
-36 -138 -56 -161 -59 -27 -5 -109 24 -109 38 0 3 -6 13 -13 20 -20 20 -37 76
-37 121 0 72 67 153 134 163 11 2 41 6 66 9 78 10 115 20 185 47 28 11 59 24
70 28 176 69 256 69 407 -4 110 -53 152 -59 219 -29 82 36 118 101 104 189
-13 89 -85 140 -225 159 -14 1 -25 4 -25 5 0 0 -16 3 -35 4 -56 6 -132 17
-180 27 -24 6 -70 12 -101 14 -52 4 -59 1 -90 -27 -54 -48 -73 -58 -115 -60
-117 -4 -204 126 -151 229 18 35 72 83 92 83 8 0 15 4 15 8 0 4 15 9 33 10 77
6 93 16 113 70 43 119 64 153 111 180 30 16 98 15 131 -3 32 -17 105 -91 163
-166 84 -108 134 -143 210 -148 46 -2 99 19 141 56 16 14 45 87 43 108 -4 44
-27 76 -109 153 -88 82 -126 127 -157 188 -27 55 -31 71 -26 113 17 145 150
237 268 187 49 -21 77 -49 160 -161 41 -55 80 -106 87 -113 6 -7 12 -17 12
-20 0 -16 82 -90 106 -96 26 -7 142 32 274 92 36 16 117 46 180 67 208 67 231
79 266 141 15 25 10 104 -11 184 -9 34 -18 77 -20 94 -3 17 -7 42 -10 56 -18
84 -16 120 7 161 48 86 149 108 232 52z m1239 -169 c27 -8 83 -68 103 -111 9
-17 13 -44 11 -60 -29 -182 -264 -185 -311 -5 -12 45 -12 55 3 82 47 88 111
119 194 94z m-1888 -15 c92 -63 93 -212 2 -268 -79 -49 -180 -24 -224 54 -63
110 6 229 136 234 41 2 60 -3 86 -20z m-852 -2114 c15 -3 68 -6 117 -8 50 -1
90 -4 90 -7 0 -3 24 -5 53 -6 48 -1 182 -11 182 -14 0 -1 8 -3 18 -5 28 -5 28
-7 13 -61 -8 -27 -17 -66 -20 -88 -4 -21 -9 -42 -12 -47 -3 -5 -103 -9 -222
-8 -119 0 -228 -2 -242 -5 -14 -3 -45 -7 -70 -10 -63 -8 -77 -11 -150 -36 -97
-34 -322 -138 -328 -152 -2 -5 -8 -8 -13 -8 -6 0 -86 -38 -179 -84 -93 -47
-186 -90 -208 -97 -77 -23 -152 13 -192 91 -20 39 -32 105 -21 116 3 3 6 9 7
12 4 32 66 117 93 127 9 4 39 9 66 11 72 7 141 28 241 75 49 22 132 58 184 80
52 22 104 44 115 49 53 24 136 53 198 69 66 16 217 20 280 6z m3737 -11 c50
-17 73 -26 110 -42 14 -6 104 -42 200 -81 96 -38 213 -86 260 -105 47 -20 97
-36 111 -36 79 0 120 -13 155 -48 65 -65 83 -126 57 -200 -23 -69 -54 -97
-121 -113 -50 -11 -96 7 -407 157 -55 26 -102 49 -105 49 -3 1 -41 19 -85 39
-79 37 -145 68 -155 71 -3 1 -16 6 -30 12 -14 6 -41 17 -61 26 -70 29 -145 36
-419 37 -112 1 -212 6 -221 10 -15 9 -22 31 -36 115 -3 17 -9 38 -14 47 -5 9
-9 19 -9 22 0 8 53 16 150 21 141 8 279 21 355 33 74 12 214 5 265 -14z
m-3299 -531 c1 -10 3 -31 5 -48 1 -16 4 -56 7 -87 3 -32 2 -58 -1 -59 -4 0
-23 -2 -42 -4 -19 -2 -66 -6 -105 -9 -38 -3 -90 -8 -115 -10 -25 -3 -73 -7
-108 -10 -87 -8 -111 -15 -158 -47 -69 -47 -88 -89 -88 -189 0 -47 4 -96 7
-110 15 -55 14 -70 -8 -116 -34 -69 -64 -98 -118 -113 -49 -14 -125 -8 -159
12 -19 12 -78 91 -78 105 0 4 -13 22 -29 40 -45 49 -68 44 -170 -33 -32 -24
-76 -51 -98 -60 -48 -19 -130 -15 -163 8 -31 21 -66 76 -76 117 -18 78 18 155
76 164 9 2 105 38 155 59 28 12 111 53 185 91 151 79 373 189 498 247 85 40
93 41 303 54 45 3 84 6 85 8 1 1 46 3 98 5 85 2 96 0 97 -15z m2740 7 c15 5
29 7 31 4 2 -2 58 -6 123 -9 66 -4 139 -11 163 -16 23 -5 134 -54 245 -108
473 -231 543 -262 637 -285 51 -12 72 -24 96 -51 65 -74 70 -174 11 -239 -71
-77 -191 -72 -295 11 -31 25 -62 50 -67 54 -20 15 -67 18 -87 6 -10 -7 -34
-37 -53 -67 -44 -73 -71 -96 -125 -111 -73 -19 -132 -5 -178 41 -21 22 -43 55
-49 74 -12 38 -10 116 5 190 6 27 6 61 2 77 -5 16 -7 29 -5 29 10 0 -28 57
-61 92 -57 61 -101 74 -269 82 -44 3 -111 8 -150 12 -38 3 -86 8 -105 9 -19 2
-39 4 -43 4 -5 1 -6 13 -3 29 3 15 8 45 11 67 15 106 13 104 56 103 22 0 43 2
46 6 3 3 13 2 21 -3 8 -5 28 -5 43 -1z m-11 -494 c78 -5 99 -15 108 -50 11
-38 -8 -92 -76 -219 -126 -234 -336 -464 -548 -600 -97 -63 -262 -138 -354
-162 -50 -13 -115 -48 -137 -73 -24 -28 -36 -82 -28 -122 13 -65 90 -120 164
-115 50 2 98 12 115 23 6 3 17 7 24 8 6 1 31 11 55 22 23 11 91 43 152 72 60
28 113 56 117 63 4 7 8 9 8 4 0 -11 154 97 240 168 93 78 214 204 285 300 17
22 35 46 42 55 6 8 27 35 45 60 29 38 40 45 69 46 41 1 96 -20 126 -48 12 -11
31 -48 44 -81 32 -89 61 -124 158 -195 199 -145 234 -203 200 -327 -15 -53
-49 -86 -106 -100 -68 -17 -100 -4 -169 72 -110 120 -196 201 -232 219 -49 24
-105 20 -159 -11 -52 -31 -73 -61 -80 -113 -10 -74 18 -123 121 -211 41 -35
78 -76 124 -136 29 -38 39 -139 16 -176 -27 -46 -73 -91 -109 -109 -98 -47
-191 -8 -273 115 -15 22 -35 49 -44 59 -10 11 -18 23 -18 27 0 4 -18 29 -39
57 -72 90 -128 88 -336 -12 -49 -24 -128 -56 -175 -70 -47 -15 -99 -31 -116
-36 -17 -6 -37 -10 -44 -10 -8 0 -44 -9 -81 -21 -58 -18 -69 -26 -89 -61 -25
-45 -24 -96 4 -179 9 -25 17 -54 19 -65 1 -10 6 -24 10 -30 3 -6 8 -31 11 -55
7 -72 -31 -136 -95 -163 -30 -12 -48 -13 -111 -8 -23 3 -84 57 -101 91 -10 21
-14 87 -16 267 -4 422 -12 583 -31 624 -18 41 -78 73 -133 73 -51 0 -85 -18
-119 -64 -22 -29 -25 -73 -33 -539 -4 -168 -7 -314 -9 -325 -11 -96 -114 -157
-203 -120 -118 50 -135 126 -71 340 37 127 5 201 -95 221 -144 27 -245 60
-407 134 -157 71 -205 85 -241 70 -32 -14 -113 -89 -144 -134 -11 -15 -24 -34
-30 -40 -5 -7 -14 -19 -20 -27 -65 -102 -104 -131 -178 -135 -120 -6 -216 89
-218 215 -2 51 52 129 156 229 116 112 130 132 127 185 -3 86 -83 152 -182
151 -32 0 -68 -7 -86 -17 -34 -18 -119 -99 -174 -167 -98 -120 -149 -145 -222
-109 -84 43 -125 153 -90 241 12 29 104 110 191 167 58 37 149 120 142 128 -9
11 52 142 78 167 29 28 118 56 151 49 8 -2 28 -24 44 -49 84 -133 292 -357
421 -454 33 -25 62 -48 63 -52 2 -5 8 -8 13 -8 5 0 31 -15 58 -34 48 -34 248
-146 261 -146 3 0 24 -9 46 -19 65 -31 162 -61 212 -65 62 -5 111 20 140 72
55 98 1 193 -138 241 -19 6 -48 17 -65 24 -40 16 -247 119 -260 129 -5 5 -49
35 -97 69 -85 60 -224 188 -307 283 -51 60 -165 230 -192 289 -11 23 -23 49
-28 57 -42 78 -49 120 -23 143 28 26 53 30 206 33 91 2 144 0 153 -7 7 -6 31
-44 54 -85 22 -40 61 -102 87 -136 48 -65 188 -208 237 -243 16 -11 34 -26 41
-32 7 -7 15 -13 18 -13 3 0 31 -16 61 -35 73 -47 229 -118 285 -130 3 -1 23
-7 45 -13 36 -11 208 -39 245 -40 109 -4 264 -2 295 3 208 33 452 142 620 278
91 73 206 200 274 302 36 55 66 102 67 105 0 3 6 17 14 32 l13 27 106 -5 c58
-3 126 -7 151 -8z m-3753 -532 c44 -20 73 -64 80 -124 8 -72 -25 -120 -102
-149 l-57 -21 -49 26 c-45 25 -79 60 -83 88 -1 6 -4 16 -7 21 -7 13 -5 54 5
85 12 36 36 60 80 80 42 19 82 17 133 -6z m4790 1 c42 -28 62 -72 60 -135 -3
-95 -62 -150 -160 -150 -104 0 -170 128 -119 230 35 71 150 100 219 55z
m-3374 -1219 c100 -42 127 -175 51 -251 -77 -77 -186 -63 -244 31 -38 60 -28
156 19 189 67 47 116 56 174 31z m1930 2 c36 -19 75 -70 87 -114 9 -33 9 -47
-3 -75 -28 -64 -94 -111 -161 -114 -62 -2 -145 80 -150 150 -4 51 40 124 90
150 35 18 107 20 137 3z"/>
<path d="M2790 5316 c-102 -36 -288 -129 -373 -188 -43 -29 -86 -57 -94 -63
-64 -42 -212 -176 -234 -212 -42 -68 -21 -166 42 -199 66 -34 142 -20 204 37
161 149 343 259 544 328 85 29 131 54 161 86 53 57 24 182 -51 221 -41 21
-125 17 -199 -10z"/>
<path d="M3965 5327 c-30 -14 -86 -67 -71 -67 5 0 3 -7 -4 -15 -16 -20 -7
-105 15 -138 21 -33 121 -84 177 -91 3 -1 10 -4 14 -8 4 -5 14 -8 23 -8 40 0
351 -178 351 -201 0 -5 6 -9 13 -9 6 0 32 -19 57 -41 68 -60 148 -111 185
-116 48 -6 100 20 134 68 35 47 39 89 16 136 -26 52 -116 137 -225 214 -58 40
-107 76 -110 79 -19 20 -290 154 -335 166 -5 1 -30 10 -55 19 -65 23 -149 28
-185 12z"/>
</g>
</svg>
