<?xml version="1.0" standalone="no"?>
<!DOCTYPE svg PUBLIC "-//W3C//DTD SVG 20010904//EN"
 "http://www.w3.org/TR/2001/REC-SVG-20010904/DTD/svg10.dtd">
<svg version="1.0" xmlns="http://www.w3.org/2000/svg"
 width="695.000000pt" height="695.000000pt" viewBox="0 0 695.000000 695.000000"
 preserveAspectRatio="xMidYMid meet">
<metadata>
Created by potrace 1.14, written by Peter Selinger 2001-2017
</metadata>
<g transform="translate(0.000000,695.000000) scale(0.100000,-0.100000)"
fill="#000000" stroke="none">
<path d="M3299 6826 c-2 -2 -46 -6 -96 -10 -51 -4 -98 -8 -105 -11 -7 -2 -38
-7 -68 -10 -61 -8 -83 -11 -120 -20 -14 -3 -39 -8 -57 -11 -17 -2 -85 -18
-150 -35 -65 -17 -125 -32 -133 -34 -8 -2 -15 -4 -15 -5 0 -1 -7 -3 -15 -5
-27 -5 -204 -65 -222 -75 -10 -6 -23 -10 -29 -10 -6 0 -25 -6 -42 -14 -18 -8
-66 -29 -107 -47 -77 -33 -308 -150 -370 -187 -19 -12 -48 -29 -65 -38 -74
-42 -314 -207 -361 -249 -6 -5 -35 -30 -65 -55 -117 -98 -335 -325 -454 -471
-59 -73 -205 -275 -205 -285 0 -3 -11 -20 -25 -38 -14 -18 -25 -36 -25 -39 0
-4 -15 -30 -33 -59 -50 -79 -160 -308 -210 -438 -44 -115 -82 -225 -78 -225 1
0 -2 -12 -8 -27 -18 -48 -74 -268 -87 -343 -43 -250 -49 -338 -48 -650 0 -212
5 -287 22 -405 23 -153 28 -181 36 -208 3 -9 8 -33 11 -52 34 -202 144 -524
265 -776 49 -103 200 -368 219 -384 3 -3 22 -27 41 -55 19 -27 38 -54 42 -60
5 -5 28 -36 53 -68 167 -219 466 -508 665 -642 25 -16 47 -33 50 -36 10 -11
132 -89 140 -89 5 0 10 -4 12 -8 5 -13 222 -135 348 -195 340 -162 700 -267
1115 -323 63 -8 627 -14 640 -6 5 3 21 7 35 8 66 4 182 21 270 39 14 3 48 9
75 15 80 15 92 18 173 40 42 12 86 23 96 26 62 12 401 135 454 163 9 6 64 33
122 60 101 49 198 100 230 121 8 5 58 37 110 71 84 55 207 143 265 190 140
115 308 275 431 410 101 111 280 357 356 489 14 25 36 63 49 85 41 73 138 271
145 298 3 15 9 27 13 27 4 0 8 6 9 13 0 6 22 68 47 137 41 110 107 329 120
400 3 14 7 39 10 55 3 17 8 37 11 46 2 9 7 32 9 50 2 19 8 57 13 84 5 28 10
57 10 65 1 8 3 31 6 50 28 210 28 692 -1 825 -2 11 -6 37 -8 59 -4 33 -22 139
-29 171 -2 6 -6 28 -11 50 -40 207 -135 488 -234 698 -23 48 -41 89 -41 91 0
11 -140 251 -193 331 -68 101 -191 265 -231 308 -14 15 -26 31 -26 34 0 17
-390 388 -475 453 -55 41 -102 78 -105 81 -10 12 -158 108 -255 165 -131 78
-293 161 -430 218 -60 26 -119 51 -130 56 -11 5 -38 14 -60 20 -22 6 -49 15
-60 20 -31 13 -120 40 -151 46 -15 3 -31 7 -36 10 -4 3 -17 7 -28 10 -11 2
-30 7 -42 10 -102 26 -188 44 -283 58 -16 3 -39 7 -50 9 -11 3 -49 8 -85 12
-36 4 -74 9 -85 12 -25 6 -470 15 -476 9z m-96 -575 c23 -9 106 -81 93 -81 -4
0 -2 -9 4 -21 8 -13 12 -161 15 -442 2 -232 6 -432 8 -443 12 -50 44 -89 84
-105 83 -33 190 20 209 103 3 13 7 212 9 443 3 429 5 457 43 499 41 45 122 66
175 45 44 -17 93 -72 104 -116 10 -42 -3 -139 -37 -273 -37 -145 -27 -211 39
-244 15 -8 109 -42 207 -75 98 -33 213 -77 254 -97 172 -84 205 -86 271 -24
24 23 103 125 139 180 8 12 21 28 28 36 6 7 12 16 12 21 1 17 69 83 107 103
138 72 288 -42 283 -215 -2 -72 -35 -122 -164 -251 -119 -118 -141 -154 -123
-209 29 -90 109 -131 219 -112 45 7 153 101 223 191 65 85 126 130 175 130 82
0 156 -72 174 -168 12 -65 37 -86 113 -92 41 -3 96 -36 123 -74 75 -105 5
-260 -117 -260 -35 0 -53 8 -107 49 -35 27 -66 48 -68 46 -2 -2 -28 -7 -58
-10 -30 -4 -57 -8 -60 -10 -3 -2 -30 -6 -60 -10 -29 -3 -56 -8 -60 -10 -3 -2
-30 -6 -60 -10 -30 -3 -64 -8 -75 -10 -11 -3 -37 -7 -58 -10 -50 -7 -128 -48
-150 -80 -64 -91 -21 -232 80 -266 58 -19 98 -13 190 29 48 22 105 45 127 52
78 25 171 14 301 -36 173 -67 190 -72 263 -78 101 -8 149 -37 178 -105 37 -89
9 -185 -67 -223 -58 -30 -95 -23 -295 58 -177 72 -330 126 -399 141 -38 8
-215 9 -280 0 -181 -22 -358 -35 -565 -41 -72 -2 -75 -1 -105 29 -16 18 -41
47 -55 66 -42 56 -182 192 -256 247 -74 55 -189 119 -270 150 -27 10 -58 22
-69 27 -11 4 -26 9 -34 11 -8 1 -35 9 -60 17 -25 8 -64 18 -86 22 -22 4 -51 9
-65 12 -31 6 -270 6 -330 -1 -72 -7 -123 -16 -156 -27 -17 -5 -40 -11 -50 -13
-72 -14 -344 -142 -374 -176 -3 -3 -23 -18 -45 -34 -57 -42 -223 -211 -268
-273 -27 -37 -46 -53 -63 -54 -114 -5 -395 9 -544 27 -30 3 -70 7 -87 8 -18 0
-33 3 -33 6 0 3 -17 5 -38 6 -20 1 -57 2 -82 3 -57 3 -97 -4 -185 -29 -38 -11
-74 -22 -80 -23 -15 -4 -137 -48 -160 -58 -76 -33 -249 -99 -290 -111 -88 -26
-161 16 -188 107 -20 70 -12 116 29 165 36 42 72 59 141 65 92 9 110 14 205
51 257 100 310 102 488 19 128 -60 177 -61 248 -8 79 59 90 180 23 257 -33 38
-86 56 -201 72 -19 2 -89 14 -155 25 -193 33 -221 33 -256 1 -87 -78 -180 -81
-240 -8 -91 109 -14 266 138 282 57 6 76 21 93 77 43 145 117 205 215 174 40
-13 55 -27 138 -127 100 -120 154 -168 208 -184 74 -22 135 -8 186 42 68 68
60 144 -25 224 -150 143 -196 201 -217 272 -37 124 71 268 200 268 89 0 135
-42 274 -246 8 -11 35 -46 60 -76 25 -30 46 -57 47 -58 1 -2 19 -10 40 -17 44
-15 60 -10 279 83 77 32 158 65 180 71 22 7 47 15 55 18 8 3 20 7 25 8 80 19
131 41 160 70 38 39 43 58 33 135 -7 58 -8 65 -33 175 -9 39 -20 87 -24 108
-20 86 31 171 118 197 36 11 66 12 94 1z m1299 -202 c30 -16 60 -55 79 -103
19 -48 11 -93 -28 -144 -66 -88 -211 -70 -258 32 -37 82 -16 157 59 205 49 30
103 34 148 10z m-1908 -11 c97 -63 90 -225 -12 -274 -141 -67 -280 71 -212
211 26 55 69 81 137 84 40 1 60 -3 87 -21z m-824 -2113 c36 -4 83 -9 105 -11
22 -1 40 -3 40 -4 0 -1 27 -3 60 -5 131 -7 239 -16 246 -21 8 -5 6 -20 -11
-95 -6 -26 -12 -54 -14 -63 -5 -38 -22 -41 -219 -42 -172 -1 -309 -8 -363 -18
-39 -8 -107 -28 -123 -36 -9 -5 -34 -16 -56 -26 -50 -20 -104 -45 -277 -128
-75 -36 -141 -66 -146 -66 -6 0 -12 -3 -14 -7 -4 -9 -191 -98 -228 -109 -62
-18 -129 4 -175 58 -10 13 -18 23 -16 23 1 0 -3 13 -9 30 -25 65 -8 136 44
193 30 33 63 49 121 56 92 12 120 18 160 36 22 10 69 30 105 45 36 15 93 40
127 56 34 16 65 29 68 29 3 0 24 9 48 20 52 24 147 61 167 65 8 2 35 8 60 14
80 19 178 21 300 6z m3670 0 c47 -8 154 -45 235 -80 17 -8 54 -23 84 -35 30
-11 74 -30 98 -41 43 -19 94 -41 103 -44 3 -1 23 -9 45 -19 92 -41 126 -49
254 -58 8 -1 36 -23 61 -49 58 -59 71 -103 55 -175 -20 -90 -73 -135 -157
-135 -33 0 -153 50 -391 165 -98 47 -179 86 -181 86 -3 0 -37 15 -78 34 -206
97 -232 102 -493 105 -269 4 -304 6 -315 17 -7 8 -50 164 -50 184 0 4 6 7 13
7 6 0 44 3 82 7 39 4 99 8 135 11 85 5 189 15 248 24 53 8 199 6 252 -4z
m-3259 -533 c0 -4 2 -16 4 -27 2 -11 6 -46 9 -78 3 -32 8 -62 10 -66 13 -20
-16 -33 -80 -37 -175 -10 -234 -14 -299 -19 -64 -4 -131 -25 -163 -50 -39 -30
-66 -62 -79 -93 -15 -37 -19 -129 -6 -172 4 -14 7 -52 7 -85 0 -52 -4 -67 -33
-108 -36 -53 -82 -79 -141 -82 -47 -2 -101 13 -125 34 -23 19 -65 76 -65 88 0
28 -84 92 -95 73 -4 -6 -10 -8 -14 -5 -8 4 -120 -68 -131 -85 -15 -22 -80 -43
-132 -43 -71 0 -119 29 -149 90 -24 50 -29 153 -7 153 5 0 7 4 4 8 -3 5 9 23
27 39 30 29 71 47 128 58 41 8 75 24 369 168 330 162 435 211 471 220 14 4 79
9 145 13 65 3 120 6 121 7 5 6 223 4 224 -1z m2924 -6 c143 -8 136 -7 300 -81
28 -12 179 -86 336 -164 157 -77 293 -141 301 -141 8 0 18 -3 22 -7 4 -4 19
-9 34 -10 83 -11 142 -56 161 -125 16 -58 8 -112 -23 -153 -35 -45 -81 -67
-143 -66 -64 0 -109 19 -161 65 -22 20 -44 36 -49 36 -6 0 -16 7 -23 15 -17
20 -73 19 -94 -2 -9 -10 -35 -46 -57 -79 -43 -68 -83 -94 -152 -98 -62 -5
-100 9 -141 51 -31 32 -59 92 -59 128 0 10 10 84 20 140 6 37 6 42 -1 83 -6
37 -12 48 -46 88 -74 86 -113 98 -360 110 -116 5 -191 10 -223 13 -11 1 6 181
18 201 4 7 177 5 340 -4z m-2820 -489 c11 -4 26 -20 33 -37 14 -30 109 -181
121 -190 3 -3 31 -34 61 -70 55 -66 66 -77 136 -140 118 -107 364 -233 519
-266 122 -25 204 -32 350 -30 170 4 188 6 281 30 236 62 429 171 595 338 71
71 172 198 205 258 10 19 21 37 24 40 3 3 13 22 22 42 l18 38 127 -5 c156 -6
191 -11 221 -31 21 -14 24 -22 19 -61 -5 -48 -104 -255 -140 -294 -12 -13 -21
-26 -20 -29 1 -3 -5 -14 -15 -25 -9 -11 -25 -32 -34 -47 -10 -15 -29 -38 -43
-52 -14 -14 -25 -28 -25 -31 0 -6 -112 -116 -172 -170 -107 -96 -288 -207
-423 -260 -50 -20 -92 -36 -95 -36 -24 -2 -90 -25 -90 -31 0 -4 -6 -8 -13 -8
-20 0 -53 -41 -66 -82 -13 -40 -10 -82 8 -116 17 -33 75 -72 112 -77 65 -9
211 39 392 131 78 39 254 147 267 163 3 3 25 22 50 40 73 56 132 113 250 241
35 37 130 160 130 167 0 4 18 27 40 51 40 43 44 44 105 28 22 -5 71 -35 87
-52 9 -11 29 -50 44 -89 15 -38 34 -76 41 -83 7 -7 16 -19 20 -26 5 -7 55 -48
113 -92 154 -115 183 -151 185 -223 2 -56 -11 -110 -33 -135 -25 -27 -87 -56
-121 -56 -46 0 -71 16 -131 82 -167 185 -248 246 -315 235 -167 -27 -214 -189
-87 -299 181 -158 238 -263 197 -363 -21 -49 -81 -103 -130 -117 -106 -30
-179 7 -265 137 -19 28 -37 52 -42 53 -4 2 -8 9 -8 16 0 21 -82 98 -126 117
-49 22 -64 19 -194 -44 -188 -90 -249 -112 -420 -152 -106 -24 -128 -35 -146
-75 -22 -46 -21 -66 15 -194 39 -137 39 -179 4 -234 -15 -23 -36 -45 -45 -48
-10 -3 -18 -9 -18 -13 0 -8 -32 -14 -82 -13 -69 1 -130 56 -143 129 -3 18 -7
182 -10 365 -7 432 -9 470 -31 503 -40 61 -153 79 -215 35 -58 -42 -57 -38
-64 -495 -6 -453 -8 -464 -63 -503 -82 -59 -194 -34 -239 51 -21 40 -24 120
-7 170 7 20 14 41 15 45 2 8 4 16 19 64 18 58 15 117 -7 147 -28 37 -72 56
-173 77 -79 15 -233 71 -345 124 -172 82 -184 85 -227 67 -47 -20 -97 -72
-178 -186 -88 -125 -126 -153 -210 -153 -78 1 -147 49 -182 129 -44 99 -13
169 135 306 111 105 134 137 131 188 -4 71 -52 128 -127 155 -55 19 -105 10
-159 -29 -45 -32 -50 -37 -163 -163 -38 -42 -83 -86 -100 -96 -122 -74 -270
99 -201 235 21 42 93 106 194 174 53 35 131 108 133 125 2 12 6 27 9 33 1 3 3
8 4 13 1 4 14 33 28 65 23 50 34 61 73 78 42 19 72 24 115 20 8 0 28 -21 43
-45 34 -55 145 -197 166 -213 9 -7 13 -13 9 -13 -10 0 141 -151 197 -195 28
-22 52 -43 55 -46 3 -3 50 -35 105 -71 122 -79 318 -180 420 -214 42 -15 144
-32 160 -28 46 12 85 40 103 73 26 46 29 77 13 123 -19 57 -67 91 -177 128
-184 60 -306 129 -498 280 -42 33 -156 149 -211 214 -142 170 -270 413 -250
477 8 25 36 39 94 48 57 8 239 7 266 -2z m-1111 -534 c45 -34 59 -64 60 -127
1 -49 -4 -68 -22 -93 -13 -18 -30 -33 -38 -33 -8 0 -14 -4 -14 -9 0 -5 -23
-12 -50 -16 -43 -6 -56 -3 -94 19 -113 66 -109 217 7 271 40 19 55 21 88 14
23 -5 51 -17 63 -26z m4779 -6 c83 -57 72 -203 -20 -252 -45 -24 -119 -25
-159 -1 -66 40 -92 163 -45 222 20 25 81 70 81 59 0 -2 10 -1 22 4 26 9 82 -5
121 -32z m-3372 -1208 c56 -29 90 -97 84 -162 -5 -45 -26 -79 -69 -111 -41
-31 -130 -29 -174 4 -78 58 -91 172 -27 237 46 48 130 62 186 32z m1931 -6
c20 -12 43 -39 59 -72 23 -45 25 -58 17 -91 -18 -69 -94 -130 -163 -130 -98 0
-179 124 -140 215 36 86 148 124 227 78z"/>
<path d="M3975 5334 c-94 -32 -129 -130 -78 -216 22 -38 74 -67 183 -102 47
-16 116 -44 155 -63 64 -33 193 -110 205 -123 3 -3 32 -25 65 -50 33 -25 71
-56 85 -68 47 -44 97 -73 136 -77 74 -9 158 70 156 147 -2 59 -38 110 -142
198 -36 30 -67 57 -70 60 -3 3 -12 10 -21 15 -9 6 -49 32 -90 59 -156 104
-415 220 -511 229 -20 2 -53 -2 -73 -9z"/>
<path d="M2847 5334 c-2 -2 -12 -5 -23 -7 -10 -2 -32 -9 -47 -15 -16 -7 -30
-12 -32 -12 -14 0 -244 -115 -300 -150 -177 -110 -336 -247 -366 -315 -58
-132 77 -249 205 -177 16 9 37 24 46 32 126 118 328 246 475 304 22 8 72 27
110 42 39 15 85 39 103 53 66 53 65 147 -3 215 -31 31 -38 34 -99 34 -36 0
-67 -2 -69 -4z"/>
</g>
</svg>
