<svg xmlns="http://www.w3.org/2000/svg" viewBox="0 0 695 691">
  <path style="fill:#1dd05d" d="M319 680A352 352 0 0 1 65 531a338 338 0 0 1-49-248A334 334 0 0 1 233 31c74-26 140-28 214-5a357 357 0 0 1 157 102c62 71 91 166 78 261-12 98-64 181-147 236a353 353 0 0 1-216 55zm68-59c5-2 9-9 9-15l-4-14c-4-13-4-16-1-20 2-4 3-5 17-8 13-3 26-7 40-15l14-5 8 2c4 3 6 6 16 21 6 8 11 12 19 12 6 0 11-3 15-8 10-11 5-24-14-39-7-6-9-10-9-17 0-5 3-10 9-13 11-6 18-2 37 20 8 10 13 11 21 8 6-3 9-8 9-16 0-9-3-13-18-24-13-9-16-12-18-20l-4-9c-3-3-10-6-14-6-3 0-4 0-9 8-22 31-48 53-82 67-20 9-27 10-34 5-9-5-9-18-1-24l9-4c18-5 33-12 49-25 20-16 35-35 46-57 6-12 7-16 3-20-3-1-5-2-19-2l-16-1-2 5a134 134 0 0 1-78 65c-16 5-25 6-43 5a126 126 0 0 1-110-70c-2-4-2-4-15-4-16 0-21 1-24 4-2 3-1 6 4 16a166 166 0 0 0 91 82c11 4 15 6 17 11 3 5 3 9 0 14-5 9-13 10-28 4a196 196 0 0 1-94-75c-3-5-3-5-8-4-10 1-14 5-18 18-2 6-4 9-18 18-10 7-15 12-17 16-2 8 1 18 8 22 8 5 14 3 24-10 12-15 19-19 26-19 8 0 17 6 18 13s0 10-6 15c-15 14-18 17-20 22s-3 6-2 10c2 14 16 23 29 17 4-2 5-4 15-18 7-10 14-15 19-15l14 5c13 7 27 12 39 15 12 2 14 3 17 7s3 9-1 20c-3 11-4 18-1 23 7 11 22 12 28 1 2-3 2-6 3-45 0-35 0-43 2-46 5-10 21-10 26 0 2 3 2 7 3 45 0 40 0 42 2 45 5 8 13 11 22 7zm-129-14c15-7 10-30-7-30-10 0-18 9-15 19 1 5 6 10 10 12 5 1 8 1 12-1zm193-1c4-2 9-8 9-13 0-4-4-11-8-14s-13-3-18 1l-5 6c-3 6-1 15 5 19 5 4 10 5 17 1zM113 484c15-3 15-25-1-29-11-3-21 7-18 18 1 5 6 10 10 11l4 2 5-2zm481-1c6-4 9-12 6-20-4-11-20-12-27-2-4 6-2 17 3 21s12 4 18 1zm-445-49c4-2 8-8 10-13 1-4 0-6-1-11-4-16 2-28 17-32l24-2 21-2-1-10-1-11-22 1-28 2-42 20a261 261 0 0 1-54 25c-5 5-6 14-1 21 3 6 7 8 14 8 6 0 10-2 18-8 10-9 14-8 20 3 4 7 5 9 11 10 5 2 10 1 15-1zm415 0c3-2 6-5 9-11 5-9 10-9 20 0 5 5 11 7 17 7 15 0 22-16 13-28-2-4-6-6-13-7-5-1-12-4-41-18l-41-20c-6-2-11-2-29-3h-22l-3 20 21 2c25 1 30 2 36 8 7 7 9 14 6 25-4 16 6 29 20 27l7-2zm-463-81c27-14 42-21 52-24 9-3 25-5 48-4 18 0 18 0 18-2l2-11 2-7-5-1a456 456 0 0 0-41-3c-8-2-24-2-31 0-8 2-20 7-43 17-17 8-20 9-27 10-9 0-11 1-15 6-5 6-7 13-4 19 3 8 9 12 16 12 4 0 8-2 28-12zm528 10c7-3 11-12 9-21-1-4-7-11-11-13l-9-1c-5 0-8-1-21-7l-50-20c-7-2-23-2-31 0l-20 2-20 1-5 1 2 6 2 11c1 3 1 3 28 3 23 0 28 1 33 2 7 2 27 11 60 27 23 11 26 12 33 9zm-528-76c20-8 39-15 49-16a579 579 0 0 0 81 5c8 0 8 0 11-5a133 133 0 0 1 126-53 134 134 0 0 1 84 52c5 6 5 6 11 6l59-5c23-3 30-1 79 19 9 4 12 4 18 2 12-6 11-25-1-31-2-2-5-2-10-2-6 0-9-1-19-6-23-9-33-10-50-1-8 4-10 5-14 4-18-1-22-25-6-33l7-2a464 464 0 0 0 45-7l5 4 7 5c12 4 23-10 19-22-3-6-10-11-16-11-7 0-10-3-11-12-1-5-6-11-10-13-8-3-15-1-23 10-8 10-17 19-22 21h-9c-7 0-12-4-14-10-2-4-2-5 0-9 1-3 3-6 8-10 7-6 16-15 19-20 2-6 2-14-1-20-5-10-14-15-24-11-6 2-8 4-17 18l-14 18c-6 5-10 5-20 0-12-6-25-11-40-16-21-6-22-8-15-35 4-18 3-24-4-30-6-6-15-5-21 1-5 5-5 5-5 52 0 43 0 43-3 47-3 5-7 7-12 7-6 1-11-2-14-7-2-5-2-5-2-47l-1-46c-2-4-7-9-12-10-9-3-20 5-20 15l3 18c5 19 5 23 0 28-2 3-4 4-10 6-16 5-24 7-38 14l-19 7c-5 0-9-4-18-17l-12-16c-8-10-21-11-29-2-4 3-7 11-7 16 0 8 8 20 20 29l8 9c5 10-4 22-16 22-9 0-14-4-25-19-10-11-12-13-17-14-11-1-16 4-20 19-2 5-4 7-10 7-7 0-16 7-17 14-2 9 5 18 13 19 5 1 9 0 14-5s2-5 27-1l20 3c13 2 20 8 20 19 0 9-7 16-17 17-4 1-6 0-15-4-8-4-11-6-16-6-9-1-19 2-33 8-8 3-11 4-17 4l-10 2c-4 1-9 6-10 10-4 11 3 24 14 24 3 0 9-3 19-7zm115-58c-5-2-6-3-8-7-4-8-1-15 10-24 19-16 34-26 59-36 9-4 19-4 23-1 5 3 8 11 7 15-1 7-6 11-19 15-19 7-33 14-49 28-12 11-16 12-23 10zm253 0-8-5c-18-16-37-28-55-33-14-4-18-9-18-18 0-8 6-14 16-14 8 0 30 9 47 19l24 17c9 8 14 14 14 20 0 10-12 18-20 14zM260 116c7-5 9-14 4-22-3-5-7-8-14-7-7 0-11 4-14 9-3 8 0 16 7 21 4 2 13 2 17-1zm192 1c4-2 8-9 8-14 0-2-1-5-3-7-6-12-20-13-27-1-2 2-3 4-2 8 1 12 13 19 24 14z"/>
</svg>
