<?xml version="1.0" encoding="UTF-8" standalone="no"?>
<!-- Created with Inkscape (http://www.inkscape.org/) -->

<svg
   width="695.29138"
   height="691.43884"
   viewBox="0 0 695.29138 691.43884"
   version="1.1"
   id="svg5"
   inkscape:version="1.1.2 (0a00cf5339, 2022-02-04)"
   sodipodi:docname="logo.svg"
   xmlns:inkscape="http://www.inkscape.org/namespaces/inkscape"
   xmlns:sodipodi="http://sodipodi.sourceforge.net/DTD/sodipodi-0.dtd"
   xmlns="http://www.w3.org/2000/svg"
   xmlns:svg="http://www.w3.org/2000/svg">
  <sodipodi:namedview
     id="namedview7"
     pagecolor="#ffffff"
     bordercolor="#666666"
     borderopacity="1.0"
     inkscape:pageshadow="2"
     inkscape:pageopacity="0.0"
     inkscape:pagecheckerboard="0"
     inkscape:document-units="px"
     showgrid="false"
     fit-margin-top="10"
     fit-margin-left="10"
     fit-margin-right="10"
     fit-margin-bottom="10"
     lock-margins="true"
     inkscape:zoom="0.59814815"
     inkscape:cx="191.42415"
     inkscape:cy="345.2322"
     inkscape:window-width="2560"
     inkscape:window-height="1363"
     inkscape:window-x="0"
     inkscape:window-y="1480"
     inkscape:window-maximized="1"
     inkscape:current-layer="layer1" />
  <defs
     id="defs2" />
  <g
     inkscape:label="Layer 1"
     inkscape:groupmode="layer"
     id="layer1"
     transform="translate(-440.13076,-193.97953)">
    <path
       style="fill:#000000"
       d="m 758.69635,874.4386 c -41.18836,-3.78418 -84.90492,-16.27237 -121.97932,-34.84493 -54.93304,-27.51892 -98.58067,-65.63608 -131.69737,-115.01036 -28.08507,-41.87254 -46.73211,-93.77536 -52.99207,-147.5 -3.55575,-30.51638 -2.00524,-71.73373 3.75274,-99.75962 15.53386,-75.60809 50.26076,-135.4652 109.63532,-188.97319 26.57502,-23.94926 70.40246,-49.55473 107.76846,-62.96199 73.97945,-26.5445 139.97784,-28.32978 213.51225,-5.77556 40.6049,12.45421 84.4202,35.96185 116.50004,62.50419 9.8551,8.15401 31.2495,29.0373 40.484,39.51688 62.5106,70.93907 91.2942,166.28334 78.9294,261.44929 -12.6758,97.55814 -64.8329,181.12002 -147.41344,236.17352 -45.4437,30.29567 -102.9449,50.05544 -161.00001,55.32614 -12.92231,1.17319 -41.98199,1.0976 -55.5,-0.14437 z m 68.00236,-59.39325 c 4.93235,-2.47819 8.99765,-9.17906 8.99765,-14.83083 0,-1.90747 -1.575,-8.49151 -3.5,-14.63121 -4.0286,-12.84897 -4.2219,-15.3039 -1.5498,-19.68618 2.5994,-4.26312 3.9669,-4.87379 17.1934,-7.67818 13.3973,-2.84059 26.3983,-7.68477 40.7746,-15.19258 6.1573,-3.21561 11.705,-5.44306 13.5564,-5.44306 1.7353,0 5.1178,1.26938 7.5796,2.84446 4.2924,2.74631 6.6299,5.63108 16.7369,20.65554 5.5616,8.26758 10.7671,11.5 18.5197,11.5 6.2065,0 10.8588,-2.21201 15.1182,-7.18813 9.8627,-11.52232 5.3601,-24.46307 -13.8227,-39.72731 -7.1736,-5.70815 -9.6063,-9.84562 -9.6063,-16.33781 0,-5.79818 3.1687,-10.56607 8.97,-13.49675 11.4912,-5.80519 18.5678,-1.98706 37.4428,20.20202 8.2969,9.7537 13.0635,11.43216 21.23384,7.47703 6.0705,-2.9387 8.8185,-7.7851 8.838,-15.58684 0.022,-8.67626 -3.0216,-12.63695 -18.03134,-23.4668 -12.9807,-9.36586 -15.695,-12.45904 -18.0541,-20.5742 -0.8513,-2.92845 -2.7333,-6.73325 -4.1822,-8.45513 -3.1049,-3.68996 -9.4251,-6.79324 -13.8981,-6.82412 -2.8571,-0.0197 -3.7728,0.81857 -8.9881,8.22804 -21.9545,31.19088 -48.1859,52.78889 -81.7549,67.31397 -20.6408,8.93114 -26.7317,9.8588 -34.3501,5.23161 -8.43401,-5.12251 -8.69375,-18.76588 -0.4688,-24.62255 1.533,-1.09156 5.4772,-2.73992 8.7651,-3.66302 18.1438,-5.09411 32.4924,-12.55479 48.9779,-25.46658 19.8702,-15.56273 35.3649,-34.5291 46.1866,-56.53504 6.1418,-12.48918 6.5987,-16.4828 2.2551,-19.71115 -2.1681,-1.61145 -4.9945,-1.99205 -18.5322,-2.49555 l -15.9739,-0.5941 -1.9678,4.3962 c -3.8761,8.65957 -13.737,22.28185 -23.1549,31.98753 -15.6197,16.09682 -33.2927,26.88595 -54.48993,33.26529 -16.02278,4.82209 -25.74553,6.02638 -43.43399,5.37988 -26.99508,-0.98665 -50.19714,-9.08728 -72.3966,-25.27613 -13.57219,-9.89745 -29.65967,-29.00323 -37.57673,-44.6268 -2.44935,-4.83356 -2.44935,-4.83356 -14.68251,-4.77395 -16.04122,0.0782 -21.50645,1.00634 -23.8674,4.05347 -2.35746,3.04261 -1.81336,5.89752 3.1688,16.62678 11.43831,24.63278 32.93642,49.24441 56.75071,64.96979 12.86146,8.49286 22.4156,13.16711 34.39043,16.8251 11.63101,3.55297 14.93237,5.52901 17.56982,10.51651 2.83577,5.36252 2.83228,9.37057 -0.0125,14.39301 -5.04041,8.89876 -13.47776,10.14491 -28.58409,4.22172 -27.99666,-10.97749 -53.30833,-27.35809 -70.23712,-45.45436 -8.0246,-8.57801 -19.04157,-22.49557 -23.49807,-29.68473 -2.91371,-4.70035 -2.91371,-4.70035 -8.18179,-4.18401 -9.65579,0.94639 -14.01517,5.33234 -17.56462,17.67168 -1.88798,6.56338 -4.42383,9.17819 -17.82609,18.38118 -9.91253,6.80669 -15.26616,11.96155 -16.9082,16.28044 -2.88222,7.58083 0.78054,18.15277 7.64201,22.05736 8.32128,4.73531 13.51604,2.58826 23.84919,-9.85714 12.46595,-15.01418 18.93057,-19.89707 26.28595,-19.85445 8.09731,0.0469 16.5329,6.42626 17.86134,13.50748 1.20049,6.39914 -0.29215,10.36463 -5.78149,15.35967 -15.28572,13.90931 -17.96407,16.76732 -20.42279,21.79275 -2.08584,4.26331 -2.48527,6.17842 -1.96596,9.42602 2.36455,14.78709 16.27119,22.91433 29.09874,17.00572 4.08046,-1.87954 5.22691,-3.2338 15.33396,-18.1136 6.47925,-9.53887 13.2542,-15 18.60866,-15 1.9389,0 7.35581,2.14544 13.63699,5.40111 13.01966,6.74836 27.56563,12.18508 39.34947,14.70729 11.63063,2.48942 14.06343,3.49978 17.09117,7.09803 3.40613,4.04796 3.23998,9.64481 -0.60992,20.54545 -3.87747,10.97869 -4.15383,17.28638 -1.00245,22.88023 6.08371,10.79887 21.45268,11.30491 27.74719,0.9136 1.6938,-2.79622 1.88589,-6.5271 2.34493,-45.54571 0.41259,-35.07032 0.76222,-43.01792 2,-45.46267 5.0472,-9.9688 21.32942,-10.17098 26.70145,-0.33155 1.62579,2.97779 1.84658,7.32863 2.29855,45.29422 0.47268,39.70551 0.60926,42.1855 2.5,45.39547 4.69993,7.97924 13.40169,10.63665 21.50236,6.56657 z M 698.36839,800.64514 c 14.71768,-6.6823 9.34732,-29.83954 -6.96188,-30.01991 -10.19166,-0.11272 -18.20391,9.69702 -15.65416,19.16606 1.322,4.90952 6.27131,10.53375 10.2956,11.69957 4.87239,1.41151 7.79005,1.21123 12.32044,-0.84572 z m 192.36607,-0.31183 c 4.803,-2.42203 8.9619,-8.80285 8.9619,-13.75 0,-3.6716 -4.0046,-11.02168 -7.3233,-13.44146 -4.4545,-3.24785 -13.249,-2.88488 -18.0056,0.74315 -2.0203,1.54093 -4.3477,4.10609 -5.1722,5.70034 -3.2102,6.20799 -1.1078,14.92765 4.645,19.26427 5.6769,4.27945 10.5086,4.70378 16.8942,1.4837 z M 553.25435,678.46439 c 15.05887,-3.79187 14.45455,-25.83862 -0.82101,-29.9519 -10.98154,-2.95702 -21.59757,7.44743 -18.67463,18.30242 1.40057,5.20132 6.1819,10.36767 10.7083,11.57059 2.05114,0.54511 3.86757,1.03761 4.03652,1.09446 0.16895,0.0568 2.30682,-0.40016 4.75082,-1.01557 z m 480.83755,-1.70663 c 6.5125,-3.76622 9.2792,-12.23055 6.3159,-19.32279 -4.7053,-11.26133 -20.5038,-12.66551 -27.5071,-2.44485 -4.0808,5.95547 -2.22,16.75519 3.6723,21.31379 4.4624,3.4524 11.9963,3.64758 17.5189,0.45385 z M 588.79791,628.00074 c 4.33337,-2.19082 8.56841,-7.87324 9.8503,-13.21678 1.01765,-4.24204 0.94098,-5.95136 -0.49681,-11.0756 -4.48024,-15.96746 1.78309,-27.75724 17.04495,-32.08455 2.2,-0.62378 13.18188,-1.55746 24.40417,-2.07483 11.2223,-0.51737 20.58838,-1.12489 20.81352,-1.35003 0.22514,-0.22514 -0.16507,-5.01199 -0.86712,-10.63745 l -1.27647,-10.2281 -22.53705,0.70209 c -15.34009,0.47789 -24.29342,1.19511 -28.03705,2.24594 -3.025,0.84912 -21.85048,9.81441 -41.83441,19.92287 -27.19606,13.75657 -37.25632,18.38453 -40,18.40097 -4.44639,0.0266 -10.88222,2.8596 -13.84898,6.09612 -5.24762,5.72478 -5.79582,14.15789 -1.37361,21.13098 3.59125,5.66282 7.89104,8.03665 14.557,8.03665 5.93194,0 9.76036,-1.7873 17.85106,-8.33379 9.99188,-8.08481 14.1283,-7.46108 19.68728,2.96863 3.96744,7.44369 5.74416,9.06161 11.71105,10.66438 5.08724,1.36649 10.15552,0.9542 14.35217,-1.1675 z m 414.89849,0.0593 c 3.4339,-1.76742 6.2183,-5.04464 9.4777,-11.15513 4.8836,-9.15556 10.2222,-9.2483 19.8807,-0.34535 5.4161,4.99232 10.6438,7.22342 16.8135,7.17563 15.0368,-0.11648 22.6771,-15.94555 13.6193,-28.21636 -2.8193,-3.81936 -6.842,-5.80652 -13.288,-6.56413 -4.7894,-0.5629 -11.7632,-3.70114 -40.9426,-18.42442 -19.34344,-9.76028 -38.07034,-18.641 -41.61524,-19.73495 -5.175,-1.59694 -10.8311,-2.13462 -28.6954,-2.72783 -12.2375,-0.40636 -22.2773,-0.56905 -22.3106,-0.36154 -0.8914,5.55205 -2.6788,20.45487 -2.4782,20.6624 0.1516,0.15679 9.6723,0.68151 21.1572,1.16604 25.2529,1.06538 29.5543,2.11743 36.2821,8.87409 7.018,7.04807 8.4204,13.28868 5.51,24.52011 -4.0823,15.75395 5.7063,28.88793 20.0895,26.95557 2.2,-0.29557 5.12504,-1.11643 6.50004,-1.82413 z M 540.87201,546.97426 c 27.31971,-13.59764 42.61794,-20.64784 52.32434,-24.11371 8.88656,-3.17314 24.60379,-4.50772 48.14564,-4.08814 17.44428,0.3109 17.44428,0.3109 17.95445,-2.1891 0.28059,-1.375 1.32135,-5.93802 2.3128,-10.14004 l 1.80264,-7.64003 -5.0958,-0.67599 c -2.80269,-0.37179 -12.30119,-1.10067 -21.10777,-1.61974 -8.80658,-0.51907 -18.03696,-1.36977 -20.51196,-1.89043 -7.18085,-1.51064 -23.5157,-1.21402 -30.32588,0.55067 -8.20053,2.12498 -20.35654,6.96766 -43.17412,17.19961 -17.05879,7.64957 -19.81735,8.58866 -27,9.19155 -9.12,0.7655 -11.0094,1.56267 -15.3083,6.45885 -5.0025,5.69754 -6.35492,12.84581 -3.65356,19.31107 3.04485,7.28737 8.54571,11.24507 15.63752,11.25074 3.96347,0.003 8.2284,-1.76454 28,-11.60531 z m 528.47969,9.96832 c 6.9249,-3.28606 10.5967,-11.87197 8.9137,-20.84306 -0.816,-4.3498 -6.7453,-11.26777 -11.2869,-13.16908 -1.7698,-0.74092 -5.8198,-1.34861 -9,-1.35042 -4.9279,-0.003 -7.9981,-0.9729 -20.7821,-6.56648 -23.2503,-10.17308 -43.41294,-18.20067 -49.96014,-19.89125 -6.8582,-1.77088 -22.7045,-2.03138 -30.6534,-0.50391 -2.9626,0.5693 -12.2571,1.45487 -20.6545,1.96795 -8.3974,0.51308 -17.4334,1.22012 -20.08,1.5712 l -4.812,0.63834 1.7454,6.64372 c 0.9599,3.65405 2.0086,8.21872 2.3303,10.14372 0.585,3.5 0.585,3.5 27.8346,3.59463 22.8128,0.0792 28.2266,0.37979 33.2497,1.846 6.645,1.93965 26.67464,10.95718 59.94264,26.98673 23.4876,11.31707 26.4867,12.12361 33.2127,8.93191 z M 541.59058,480.93032 c 19.77316,-8.42962 38.98426,-14.88855 48.63469,-16.35139 6.41246,-0.97202 9.67102,-0.83874 22.24212,0.90979 14.54162,2.02261 44.64781,4.10439 59.22896,4.09556 7.5,-0.005 7.5,-0.005 10.31112,-4.45422 4.21482,-6.67158 19.79162,-22.69433 28.25549,-29.06443 13.4407,-10.11576 28.87166,-17.32835 47.43339,-22.17086 12.84522,-3.35114 37.17578,-4.28387 50.63569,-1.94115 19.30632,3.36031 38.98672,11.52616 54.59502,22.65278 9.4873,6.76319 21.9545,19.14768 29.2448,29.0508 4.6058,6.25662 4.6058,6.25662 11.3152,6.08802 17.7894,-0.44703 45.178,-2.453 58.467,-4.28219 23.2491,-3.20015 29.9903,-1.6105 78.74234,18.56841 9.6982,4.01416 12.7986,4.2804 18.6913,1.60507 11.5011,-5.22156 10.9293,-24.96194 -0.9015,-31.12154 -2.6216,-1.36492 -5.7388,-1.93166 -10.6246,-1.93166 -6.102,0 -8.31,-0.60064 -18.7899,-5.11143 -22.7911,-9.80987 -32.56384,-10.06978 -49.94374,-1.32826 -8.3386,4.19405 -9.8902,4.65008 -14.3598,4.22061 -18.0073,-1.73027 -22.0837,-25.74469 -5.6677,-33.38856 2.8027,-1.30505 6.051,-2.37722 7.2183,-2.38259 1.1673,-0.005 11.4941,-1.58477 22.9485,-3.50977 11.45444,-1.925 21.16734,-3.5 21.58424,-3.5 0.4169,0 2.69,1.7954 5.0514,3.98978 2.3614,2.19439 5.7853,4.48896 7.6087,5.09907 11.6741,3.90624 22.7813,-9.4397 18.1212,-21.77375 -2.3312,-6.17005 -9.5416,-11.3151 -15.8572,-11.3151 -6.5385,0 -9.1792,-2.79046 -10.6508,-11.25485 -0.8743,-5.02847 -5.7636,-11.56945 -9.9583,-13.32208 -8.43874,-3.52594 -14.92934,-0.64268 -23.29644,10.34876 -7.463,9.80375 -16.9994,18.68552 -21.7442,20.25143 -2.0095,0.6632 -6.0457,1.00744 -8.9694,0.76499 -6.841,-0.56731 -11.6466,-4.09126 -14.0067,-10.27105 -1.6349,-4.28088 -1.6343,-4.7551 0.012,-9.06466 1.2643,-3.31037 3.4095,-5.91543 7.8859,-9.57606 7.423,-6.07031 16.0021,-15.68777 18.6848,-20.94637 2.7388,-5.3685 2.5745,-13.09472 -0.4131,-19.43011 -4.8205,-10.22205 -14.0396,-14.6316 -23.7233,-11.34705 -6.0363,2.04739 -8.513,4.58631 -17.9026,18.35202 -5.0754,7.44076 -11.2643,15.32109 -13.7531,17.51184 -6.0087,5.28905 -9.6361,5.31014 -20.0158,0.11637 -11.5694,-5.78908 -25.2224,-11.04852 -39.5773,-15.24603 -21.38799,-6.25406 -22.375,-8.48429 -15.661,-35.38715 4.5112,-18.07594 3.8825,-23.89315 -3.2596,-30.16406 -6.29029,-5.52293 -14.97014,-5.13635 -21.59509,0.96179 -5.04936,4.64787 -5.13472,5.51273 -5.13472,52.02227 0,43.34485 -0.002,43.38723 -2.25,46.69017 -3.36029,4.93729 -7.04964,7.22088 -12.42551,7.691 -6.37088,0.55713 -11.02792,-1.99978 -14.04957,-7.71379 -2.26406,-4.28142 -2.27492,-4.50607 -2.27492,-47.07956 0,-27.73153 -0.3733,-43.76777 -1.06133,-45.59272 -1.61883,-4.29381 -6.93365,-9.23666 -11.15356,-10.37296 -9.6466,-2.59756 -20.78511,5.89384 -20.78511,15.84544 0,1.64192 1.575,9.51859 3.5,17.50371 4.49604,18.6501 4.56273,23.42874 0.3932,28.17757 -2.39373,2.72631 -4.74632,4.01685 -10.25,5.62276 -16.60875,4.84625 -23.96329,7.53411 -38.40729,14.03664 -9.05109,4.07471 -16.62278,6.87174 -18.60212,6.87174 -5.33329,0 -9.43035,-3.69282 -18.30621,-16.5 -4.57405,-6.6 -9.97673,-13.97156 -12.00596,-16.38124 -8.28898,-9.84309 -20.39373,-10.66708 -29.32824,-1.99642 -3.78424,3.67247 -6.99338,11.18945 -6.99338,16.38102 0,7.50899 8.41872,19.61908 20.39233,29.33381 3.51456,2.85152 7.16491,6.81735 8.11188,8.81295 4.72489,9.95696 -3.72793,21.34988 -15.84024,21.34988 -8.93528,0 -14.03709,-3.61632 -25.68005,-18.2028 -9.45749,-11.8485 -11.76457,-13.82396 -16.95812,-14.52057 -10.26339,-1.3766 -15.83707,4.0269 -19.91676,19.30866 -1.20886,4.52819 -3.98634,6.41471 -9.4442,6.41471 -7.62468,0 -15.82,6.9797 -17.26988,14.70821 -1.55839,8.30695 4.79859,17.60088 12.86245,18.80497 5.38768,0.80448 9.01509,-0.58787 14.35506,-5.51009 4.80393,-4.4281 2.10199,-4.37878 26.38753,-0.48166 7.975,1.27975 16.975,2.6359 20,3.01365 13.23295,1.65248 20.07157,7.92016 20.1533,18.47075 0.0728,9.39771 -6.87092,16.87627 -16.53116,17.8045 -4.37895,0.42076 -5.93581,-0.0683 -15.00403,-4.7134 -8.08916,-4.14357 -11.42914,-5.29955 -16.65605,-5.7647 -8.21234,-0.73084 -18.66989,1.76842 -32.55898,7.78133 -7.96254,3.44716 -11.25114,4.33915 -16.7826,4.55205 -3.78373,0.14562 -8.31617,0.73892 -10.07209,1.31842 -3.78636,1.24961 -8.99935,6.38507 -10.48706,10.33107 -4.02239,10.66907 3.798,23.6849 14.23078,23.6849 2.69756,0 9.06815,-2.16219 19.60212,-6.65299 z m 114.84629,-57.80014 c -4.81256,-1.68682 -6.19172,-2.87059 -8.14841,-6.994 -3.86329,-8.14129 -0.96887,-15.31449 9.93778,-24.62862 18.54008,-15.83296 34.27676,-25.30811 58.47011,-35.2052 9.52258,-3.89553 19.2534,-4.37526 23.67312,-1.16708 4.30472,3.12471 7.60837,10.43064 6.76043,14.95053 -1.23054,6.55934 -6.41121,10.63779 -18.93355,14.90532 -19.47698,6.63763 -32.74196,14.26649 -48.81514,28.07421 -12.30504,10.57069 -16.38943,12.36236 -22.94434,10.06484 z m 252.56469,-0.003 c -1.7571,-0.77074 -5.1321,-3.1404 -7.5,-5.26591 -18.0756,-16.22553 -37.691,-27.91151 -55.8483,-33.27194 -13.3823,-3.95074 -17.9463,-8.37718 -17.9532,-17.41209 -0.01,-8.56589 6.6212,-14.59393 16.0462,-14.59393 8.1091,0 30.0996,9.13903 46.9501,19.51198 11.4727,7.06247 14.2458,9.04806 24.271,17.37862 9.6212,7.9948 13.729,13.86915 13.729,19.63296 0,9.69607 -11.2674,17.71735 -19.6948,14.02077 z M 700.52684,309.70401 c 6.65905,-4.74166 8.32115,-13.54577 4.0103,-21.24249 -3.14912,-5.62251 -7.86336,-8.11172 -14.43242,-7.6206 -6.49419,0.48553 -11.04014,3.65571 -13.62651,9.50263 -3.16316,7.15085 -0.27177,16.06889 6.61337,20.39792 4.24255,2.6675 12.96064,2.14875 17.43526,-1.03746 z m 191.18512,1.05531 c 3.9925,-2.08997 7.9844,-8.92747 7.9844,-13.67601 0,-1.69192 -1.0125,-5.08044 -2.25,-7.53004 -5.902,-11.68282 -19.9398,-12.16466 -27.5653,-0.94616 -1.9441,2.8602 -2.2876,4.41388 -1.9381,8.76767 0.9649,12.01928 13.2075,18.91321 23.769,13.38454 z"
       id="path944" />
  </g>
</svg>
